HIERARCHY
ROOT Hips
{
	OFFSET	0.00	0.00	0.00
	CHANNELS 6 Xposition Yposition Zposition Zrotation Xrotation Yrotation
	JOINT Spine
	{
		OFFSET	 0.00	0.01	 0.00
		CHANNELS 3 Zrotation Xrotation Yrotation
		JOINT Spine1
		{
			OFFSET	 0.00	 2.45913012437421	 0.00
			CHANNELS 3 Zrotation Xrotation Yrotation
            JOINT Neck
            {
                OFFSET	 0.00	 2.48462964506057	 0.00
                CHANNELS 3 Zrotation Xrotation Yrotation
                JOINT Head
                {
                    OFFSET	 0.00	 0.927524780924562	 0.00
                    CHANNELS 3 Zrotation Xrotation Yrotation
                    End Site 
                    {
                        OFFSET	 0.00	 1.14999962169752	 0.00
                    }
                }
            }
			JOINT LeftShoulder
			{
				OFFSET	 0.00	 2.48462964506057	 0.00
				CHANNELS 3 Zrotation Xrotation Yrotation
				JOINT LeftUpArm
				{
					OFFSET	 0.00	 1.24881979654096	 0.00
					CHANNELS 3 Zrotation Xrotation Yrotation
					JOINT LeftForeArm
					{
						OFFSET	 0.00	2.59758046908119	 0.00
						CHANNELS 3 Zrotation Xrotation Yrotation
						JOINT LeftHand
						{
							OFFSET	 0.00	2.45542024364365	 0.00
							CHANNELS 3 Zrotation Xrotation Yrotation
							JOINT LeftHandThumb 
							{
								OFFSET	 0.00	0.00	 0.00
								CHANNELS 3 Zrotation Xrotation Yrotation
								End Site
								{
									OFFSET	 0.00	0.00	1.00000003353624
								}
							}
							JOINT L_Wrist_End 
							{
								OFFSET	 0.00	0.99999967115358	 0.00
								CHANNELS 3 Zrotation Xrotation Yrotation
								End Site 
								{
									OFFSET	 0.00	 0.00	 0.00
								}
							}
						}
					}
				}
			}
			JOINT RightShoulder
			{
				OFFSET	 0.00	 2.48462964506057	 0.00
				CHANNELS 3 Zrotation Xrotation Yrotation
				JOINT RightUpArm
				{
					OFFSET	 0.00	 1.24881979654096	 0.00
					CHANNELS 3 Zrotation Xrotation Yrotation
					JOINT RightForeArm
					{
						OFFSET	 0.00	2.59758046908119	 0.00
						CHANNELS 3 Zrotation Xrotation Yrotation
						JOINT RightHand
						{
							OFFSET	 0.00	2.45542024364365	 0.00
							CHANNELS 3 Zrotation Xrotation Yrotation
							JOINT RightHandThumb 
							{
								OFFSET	 0.00	0.00	 0.00
								CHANNELS 3 Zrotation Xrotation Yrotation
								End Site
								{
									OFFSET	 0.00	0.00	1.00000003353624
								}
							}
							JOINT R_Wrist_End 
							{
								OFFSET	 0.00	0.99999967115358	 0.00
								CHANNELS 3 Zrotation Xrotation Yrotation
								End Site 
								{
									OFFSET	 0.00	 0.00	 0.00
								}
							}
						}
					}
				}
			}
		}
	}
	JOINT LeftUpLeg
	{
		OFFSET	 1.2719394002717	 0.00	 0.00
		CHANNELS 3 Zrotation Xrotation Yrotation
		JOINT LeftLowLeg
		{
			OFFSET	 0.00	-4.3429100912261	 0.00
			CHANNELS 3 Zrotation Xrotation Yrotation
			JOINT LeftFoot
			{
				OFFSET	 0.00	-4.48767017425826	 0.00
				CHANNELS 3 Zrotation Xrotation Yrotation
				JOINT LeftToeBase
                {
                    OFFSET	 0.00	0.00	 1.51507020887566
                    CHANNELS 3 Zrotation Xrotation Yrotation
                    End Site 
                    {
                        OFFSET	 0.00	0.00	 0.75000010571191
                    }
                }
			}
		}
	}
	JOINT RightUpLeg
	{
		OFFSET	 -1.2719393604653	 0.00	 0.00
		CHANNELS 3 Zrotation Xrotation Yrotation
		JOINT RightLowLeg
		{
			OFFSET	 0.00	-4.3429100912261	 0.00
			CHANNELS 3 Zrotation Xrotation Yrotation
			JOINT RightFoot
			{
				OFFSET	 0.00	-4.48767017425826	 0.00
				CHANNELS 3 Zrotation Xrotation Yrotation
				JOINT RightToeBase
                {
                    OFFSET	 0.00	0.00	 1.51507020887566
                    CHANNELS 3 Zrotation Xrotation Yrotation
                    End Site 
                    {
                        OFFSET	 0.00	0.00	 0.749999965609858
                    }
                }   
			}
		}
	}
}
MOTION 
Frames:	8 
Frame Time: 0.02 
 -1.0268599700927734 1.3591700744628907 9.323410034179688 -165.964 72.6183 889.696 5.57705 -26.3275 -1.45215 -1.74671 5.24453 -0.090881 2.47834 35.2868 6.21229 -36.3026 -75.1162 -20.4988 -121.2642 3.55504 15.4799 -40.9751 23.8949 2.66362 0.0 27.5314 0.0 12.792 -6.81006 20.6727 0.0 0.0 0.0 0.0 0.0 0.0 119.99 -4.71145 -5.4292 46.6035 5.83934 -369.71 0.0 15.2256 0.0 -1.61218 -8.41222 -5.16419 0.0 0.0 0.0 0.0 0.0 0.0 1.18552 -11.1831 -26.3055 0.0 3.75565 0.0 -0.608415 -4.4757004 20.89 0.0 -10.68219 0.0 8.21792 -8.32727 380.037 0.0 3.29252 0.0 4.35144 -0.98449993 -30.0719 0.0 -17.78937 0.0 
  -1.027750015258789 1.3626499938964844 9.32344970703125 -166.109 72.6216 889.553 5.58757 -26.416 -1.34901 -1.87455 5.42092 0.0356834 3.39457 35.3119 5.44731 -35.0858 -75.2094 -19.6419 -121.2921 3.46242 15.5228 -40.9094 23.4164 2.43228 0.0 26.6331 0.0 12.8362 -7.08278 20.2569 0.0 0.0 0.0 0.0 0.0 0.0 119.9783 -4.69809 -5.48544 46.7766 5.73944 -369.994 0.0 15.1658 0.0 -1.89021 -7.86757 -5.53762 0.0 0.0 0.0 0.0 0.0 0.0 1.19471 -11.1696 -26.2042 0.0 3.78112 0.0 -0.582186 -4.5128 21.0629 0.0 -10.72668 0.0 8.2279 -8.37611 380.292 0.0 3.33333 0.0 4.37383 -0.9638996 -30.0376 0.0 -17.8016 0.0 
  -1.0294000244140624 1.3634100341796875 9.323150024414062 -166.205 72.6541 889.415 5.59889 -26.536 -1.26397 -2.03254 5.65699 0.143993 4.39962 35.3271 4.57554 -33.8268 -75.2875 -18.7106 -121.2545 3.38264 15.4826 -40.897 22.7653 2.38927 0.0 25.5525 0.0 12.6063 -7.21812 19.7203 0.0 0.0 0.0 0.0 0.0 0.0 120.0178 -4.70828 -5.50063 46.8604 5.56929 -370.707 0.0 15.3116 0.0 -2.25985 -7.79717 -6.08406 0.0 0.0 0.0 0.0 0.0 0.0 1.21679 -11.098 -26.1896 0.0 3.76805 0.0 -0.585888 -4.5639 21.263 0.0 -10.71423 0.0 8.23846 -8.35442 380.388 0.0 3.32349 0.0 4.34976 -0.9130001 -29.9402 0.0 -17.806839 0.0 
  -1.0313400268554687 1.369459991455078 9.323350219726562 -166.397 72.6423 889.182 5.6914 -26.5594 -1.06249 -2.21626 5.77991 0.29239 5.51743 35.3816 3.62103 -32.5657 -75.422 -17.6413 -121.2566 3.25892 15.4206 -40.8242 22.0236 2.37025 0.0 24.3212 0.0 12.3214 -7.49907 19.3135 0.0 0.0 0.0 0.0 0.0 0.0 120.143 -4.70226 -5.49049 46.8028 5.32344 -371.639 0.0 15.5701 0.0 -2.56907 -7.7111 -5.5836 0.0 0.0 0.0 0.0 0.0 0.0 1.25691 -11.0833 -25.909 0.0 3.76174 0.0 -0.592958 -4.624901 21.3725 0.0 -10.68542 0.0 8.27251 -8.46546 380.786 0.0 3.42358 0.0 4.41271 -0.8963003 -29.8844 0.0 -17.8192 0.0 
  -1.0331900024414062 1.3723199462890625 9.323189697265626 -166.556 72.647 889.044 5.72581 -26.6466 -0.973916 -2.36339 5.95979 0.376139 6.5099 35.4101 2.76003 -31.5642 -75.5689 -16.9253 -121.2494 3.13966 15.4067 -40.7557 21.2154 2.5237 0.0 22.9283 0.0 11.9923 -7.75968 19.0809 0.0 0.0 0.0 0.0 0.0 0.0 120.2015 -4.66766 -5.47321 46.7946 5.12729 -372.534 0.0 15.6711 0.0 -2.79981 -7.71221 -5.08906 0.0 0.0 0.0 0.0 0.0 0.0 1.28259 -11.0392 -25.773 0.0 3.73427 0.0 -0.613954 -4.6702003 21.5136 0.0 -10.6793995 0.0 8.2817 -8.49482 381.013 0.0 3.4302 0.0 4.42161 -0.85389996 -29.8272 0.0 -17.83592 0.0 
  -1.0353399658203124 1.3776199340820312 9.323179931640626 -166.8 72.6067 888.912 5.7796 -26.7121 -0.863593 -2.49691 6.08856 0.461792 7.48378 35.4264 1.93188 -30.3585 -75.6584 -15.8935 -121.2337 2.97491 15.3302 -40.7129 20.2998 2.81254 0.0 21.4909 0.0 11.5118 -8.30891 18.7936 0.0 0.0 0.0 0.0 0.0 0.0 120.2556 -4.61614 -5.45019 46.7895 4.93824 -373.261 0.0 15.7723 0.0 -2.99223 -7.48384 -5.09511 0.0 0.0 0.0 0.0 0.0 0.0 1.30495 -11.053 -25.4975 0.0 3.71379 0.0 -0.616191 -4.7049007 21.6057 0.0 -10.7043 0.0 8.29688 -8.61084 381.363 0.0 3.48484 0.0 4.45443 -0.8295002 -29.7905 0.0 -17.83189 0.0 
  -1.0367800140380858 1.3802699279785156 9.323040161132813 -166.795 72.5214 888.822 5.83898 -26.8673 -0.883473 -2.67539 6.24258 0.387165 8.36775 35.4436 1.1975 -29.0855 -75.7013 -14.8306 -121.144 2.7829 15.186 -40.7202 19.2722 3.67788 0.0 19.8864 0.0 11.039 -8.42311 18.4642 0.0 0.0 0.0 0.0 0.0 0.0 120.3256 -4.58863 -5.42199 46.7748 4.74363 -373.905 0.0 15.7822 0.0 -2.99986 -7.24792 -4.70567 0.0 0.0 0.0 0.0 0.0 0.0 1.34223 -11.1449 -25.5283 0.0 3.73145 0.0 -0.604994 -4.746401 21.7209 0.0 -10.692329 0.0 8.32539 -8.67235 381.305 0.0 3.40069 0.0 4.40231 -0.7336998 -29.6912 0.0 -17.82222 0.0 
  -1.040240020751953 1.3823699951171875 9.322930297851563 -167.014 72.5382 888.713 5.87133 -26.9138 -0.79946 -2.80262 6.37892 0.463052 9.23258 35.4669 0.448752 -27.8459 -75.6894 -13.8313 -121.0639 2.63 15.1248 -40.7153 18.1805 4.60857 0.0 18.3157 0.0 10.3625 -8.71122 18.6376 0.0 0.0 0.0 0.0 0.0 0.0 120.3731 -4.63207 -5.27516 46.8095 4.50063 -374.242 0.0 15.8245 0.0 -2.96291 -7.13766 -5.06734 0.0 0.0 0.0 0.0 0.0 0.0 1.3718 -11.068 -25.2059 0.0 3.66674 0.0 -0.625301 -4.7705994 21.7204 0.0 -10.6927395 0.0 8.33125 -8.67651 381.551 0.0 3.38694 0.0 4.36759 -0.6725998 -29.6558 0.0 -17.81615 0.0 
